<svg xmlns="http://www.w3.org/2000/svg" width="60.348" height="44.548" viewBox="0 0 60.348 44.548">
  <g id="game-controller-outline" transform="translate(-29.43 -93.499)">
    <path id="Path_33" data-name="Path 33" d="M85.816,114.882C83.542,104.6,80.17,98.049,74.766,96.451A11.306,11.306,0,0,0,71.544,96c-3.322,0-5.944,1.977-11.862,1.977S51.138,96,47.821,96a12.244,12.244,0,0,0-3.361.452c-5.412,1.6-8.755,8.16-11.055,18.431-2.348,10.491-1.923,18.781,2.666,20.372,3.212,1.112,6.085-1.187,8.806-4.572,3.089-3.855,6.893-5.041,14.8-5.041s11.567,1.186,14.661,5.041c2.718,3.387,5.7,5.658,8.824,4.591C88.236,133.543,88.165,125.5,85.816,114.882Z" transform="translate(0 0)" fill="none" stroke="#6438fa" stroke-miterlimit="10" stroke-width="5"/>
    <circle id="Ellipse_15" data-name="Ellipse 15" cx="2.5" cy="2.5" r="2.5" transform="translate(62.006 109.52)" fill="#6438fa"/>
    <path id="Path_34" data-name="Path 34" d="M318.471,252.942a2.471,2.471,0,1,1,2.471-2.465A2.471,2.471,0,0,1,318.471,252.942Z" transform="translate(-248.905 -133.22)" fill="#6438fa"/>
    <circle id="Ellipse_16" data-name="Ellipse 16" cx="2.5" cy="2.5" r="2.5" transform="translate(67.006 103.52)" fill="#6438fa"/>
    <circle id="Ellipse_17" data-name="Ellipse 17" cx="2.5" cy="2.5" r="2.5" transform="translate(72.006 109.52)" fill="#6438fa"/>
    <line id="Line_5" data-name="Line 5" y2="12" transform="translate(48.006 105.52)" fill="none" stroke="#6438fa" stroke-linecap="round" stroke-linejoin="round" stroke-width="5"/>
    <line id="Line_6" data-name="Line 6" x1="12" transform="translate(42.006 112.52)" fill="none" stroke="#6438fa" stroke-linecap="round" stroke-linejoin="round" stroke-width="5"/>
  </g>
</svg>
