<svg xmlns="http://www.w3.org/2000/svg" width="61.051" height="45.019" viewBox="0 0 61.051 45.019">
  <g id="people-outline" transform="translate(-29.479 -93.5)">
    <path id="Path_35" data-name="Path 35" d="M286.324,105c-.366,5.086-4.139,9-8.254,9s-7.894-3.917-8.254-9a8.285,8.285,0,1,1,16.508,0Z" transform="translate(-208.06 0)" fill="none" stroke="#6438fa" stroke-linecap="round" stroke-linejoin="round" stroke-width="5"/>
    <path id="Path_36" data-name="Path 36" d="M210.012,304c-8.15,0-15.988,4.048-17.951,11.932a1.589,1.589,0,0,0,1.466,2.075H226.5a1.591,1.591,0,0,0,1.466-2.075C226,307.922,218.164,304,210.012,304Z" transform="translate(-140.002 -181.987)" fill="none" stroke="#6438fa" stroke-miterlimit="10" stroke-width="5"/>
    <path id="Path_37" data-name="Path 37" d="M107.111,135.246c-.293,4.062-3.342,7.261-6.628,7.261s-6.341-3.2-6.628-7.261a6.655,6.655,0,1,1,13.256,0Z" transform="translate(-54.11 -27.998)" fill="none" stroke="#6438fa" stroke-linecap="round" stroke-linejoin="round" stroke-width="5"/>
    <path id="Path_38" data-name="Path 38" d="M53.752,295.982a17.519,17.519,0,0,0-7.379-1.432c-6.5,0-12.769,3.233-14.338,9.53a1.271,1.271,0,0,0,1.172,1.657H47.249" transform="translate(0 -173.719)" fill="none" stroke="#6438fa" stroke-linecap="round" stroke-miterlimit="10" stroke-width="5"/>
  </g>
</svg>
