<?xml version="1.0" ?><svg data-name="Layer 1" id="Layer_1" viewBox="0 0 128 128" xmlns="http://www.w3.org/2000/svg"><title/><path d="M89.15,64.57a1,1,0,0,0,1,1h0a1,1,0,0,0,1-1,27.08,27.08,0,0,0-10.1-21.71,1,1,0,1,0-1.25,1.57A25,25,0,0,1,89.15,64.57Z"/><path d="M71,40A26,26,0,0,1,74,41a1.09,1.09,0,0,0,.39.08,1,1,0,0,0,.39-1.92A25.76,25.76,0,0,0,71.54,38a1,1,0,0,0-1.24.69A1,1,0,0,0,71,40Z"/><path d="M19.74,45.73c-5.38.45-8.45,1.89-9.12,4.26a1,1,0,0,0,.7,1.23.84.84,0,0,0,.27,0,1,1,0,0,0,1-.73c.4-1.42,3.08-2.45,7.35-2.81a1,1,0,1,0-.16-2Z"/><path d="M110.92,71.13a1,1,0,0,0-1.39.25,1,1,0,0,0,.24,1.39c3.94,2.76,6,5.22,5.52,6.75-.56,2-6.07,3.84-19.73,2.51a1,1,0,0,0-.19,2c2.79.27,5.77.47,8.6.47,6.52,0,12.28-1,13.24-4.43C117.92,77.56,115.8,74.56,110.92,71.13Z"/><path d="M31.61,34.61a1,1,0,1,0-.16,2c1.35.12,2.72.25,4.12.4h.11a1,1,0,0,0,.11-2C34.37,34.86,33,34.72,31.61,34.61Z"/><path d="M17.66,34.2a1,1,0,1,0,.06,2c2.39-.08,4.94-.07,7.58,0h0a1,1,0,0,0,0-2C22.68,34.13,20.09,34.12,17.66,34.2Z"/><path d="M24.49,74.46a1,1,0,0,0,.43-1.9c-8.68-4.14-16-8.6-21.26-12.91A1,1,0,0,0,2.39,61.2,108.53,108.53,0,0,0,24.06,74.36.94.94,0,0,0,24.49,74.46Z"/><path d="M102.47,94.52h0a1,1,0,0,0,0-2c-2.38-.09-4.87-.26-7.42-.5a1,1,0,0,0-1.09.91A1,1,0,0,0,95,94C97.53,94.25,100.06,94.43,102.47,94.52Z"/><path d="M123.73,90.82A63.13,63.13,0,0,1,108,92.62a1,1,0,0,0,0,2h0a64.83,64.83,0,0,0,16.25-1.87,1,1,0,1,0-.53-1.93Z"/><path d="M102.74,56a134.59,134.59,0,0,1,13.81,7.48,1,1,0,0,0,.54.16,1,1,0,0,0,.53-1.85,136.07,136.07,0,0,0-14-7.6,1,1,0,0,0-1.33.48A1,1,0,0,0,102.74,56Z"/><path d="M98.53,58.6A34.8,34.8,0,0,0,37.79,41.46C16.65,38.63,3,40.7,1.2,47c-2,7,10.9,16.17,28.89,24.08A34.61,34.61,0,0,0,54.72,97.62a35.18,35.18,0,0,0,9.54,1.32,34.61,34.61,0,0,0,25.33-11A132.09,132.09,0,0,0,107,89.23c10.81,0,18.43-2,19.77-6.77C128.58,76.14,118,67.24,98.53,58.6Zm-.87,15c.21-.77.39-1.54.56-2.32,2.9,2,3.77,3.48,3.58,4.14-.26.94-2.14,1.54-5.37,1.7A35.74,35.74,0,0,0,97.66,73.58Zm-24.58-41A32.8,32.8,0,0,1,95.73,73a35.26,35.26,0,0,1-1.47,4.11c-6.88-.06-18.09-1.69-32.17-5.66A152.63,152.63,0,0,1,35.5,61.57c-1.46-.75-2.71-1.45-3.78-2.09a34.12,34.12,0,0,1,.89-4.25A32.83,32.83,0,0,1,73.08,32.57ZM26.2,54.07c.18-.65,1.68-1.43,5.22-1.66-.27.75-.52,1.5-.74,2.27-.33,1.19-.58,2.4-.79,3.61C26.78,56.13,26,54.69,26.2,54.07ZM55.26,95.69a32.59,32.59,0,0,1-22.9-23.61,229.85,229.85,0,0,0,26.92,9.39,229.43,229.43,0,0,0,27.85,6.06A32.58,32.58,0,0,1,55.26,95.69Zm69.61-13.78c-1.41,5-14.89,6.88-35.34,4a1.2,1.2,0,0,0-.41-.06,226.13,226.13,0,0,1-29.3-6.32,226.42,226.42,0,0,1-28.28-9.92,1,1,0,0,0-.37-.16c-18.93-8.26-29.46-16.9-28-21.91s14.37-6.66,33.2-4.28a34.16,34.16,0,0,0-4.11,7.1c-4.78.16-7.39,1.19-7.95,3.15s1.39,4.49,5.84,7.29l0,0c1.28.8,2.75,1.64,4.44,2.5a154.6,154.6,0,0,0,27,10.07c10.22,2.88,23.9,5.72,32.89,5.72,5.06,0,8.64-.9,9.29-3.19.55-2-1.13-4.21-5.13-6.84a34.6,34.6,0,0,0,.22-8.19C116.11,68.73,126.29,76.9,124.87,81.91Z"/><path d="M105.22,43.42a5.75,5.75,0,0,0,4,7.09,5.55,5.55,0,0,0,1.56.22,5.76,5.76,0,0,0,5-8.56,5.74,5.74,0,0,0-7.82-2.2A5.66,5.66,0,0,0,105.22,43.42Zm3.7-1.71a3.78,3.78,0,0,1,1.82-.48,3.55,3.55,0,0,1,1,.15A3.67,3.67,0,0,1,114,43.15a3.73,3.73,0,0,1,.34,2.85h0a3.75,3.75,0,1,1-5.43-4.29Z"/><path d="M98.51,35a3.3,3.3,0,0,0,.82.11,3,3,0,0,0,1.46-.38,3,3,0,0,0,1.43-1.81A3,3,0,1,0,98.51,35Zm-.15-3.17a1,1,0,0,1,1-.73,1.24,1.24,0,0,1,.27,0,1,1,0,1,1-1.24.7Z"/></svg>