<svg xmlns="http://www.w3.org/2000/svg" width="50.604" height="48.387" viewBox="0 0 50.604 48.387">
  <g id="medal-outline" transform="translate(-34.709 -45.731)">
    <circle id="Ellipse_18" data-name="Ellipse 18" cx="11.878" cy="11.878" r="11.878" transform="translate(48.134 68.362)" fill="none" stroke="#6438fa" stroke-linecap="round" stroke-linejoin="round" stroke-width="4"/>
    <circle id="Ellipse_19" data-name="Ellipse 19" cx="5.091" cy="5.091" r="5.091" transform="translate(54.922 75.15)" fill="none" stroke="#6438fa" stroke-linecap="round" stroke-linejoin="round" stroke-width="4"/>
    <path id="Path_39" data-name="Path 39" d="M48.453,77.165,37.3,59.806a3.394,3.394,0,0,1-.18-3.352l3.288-6.575A3.394,3.394,0,0,1,43.445,48H76.58a3.394,3.394,0,0,1,3.035,1.876L82.9,56.451a3.394,3.394,0,0,1-.18,3.352L71.572,77.165" transform="translate(0)" fill="none" stroke="#6438fa" stroke-linecap="round" stroke-linejoin="round" stroke-width="4"/>
    <line id="Line_7" data-name="Line 7" x1="35.422" transform="translate(36.787 58.181)" fill="none" stroke="#6438fa" stroke-linecap="round" stroke-linejoin="round" stroke-width="4"/>
    <line id="Line_8" data-name="Line 8" x1="13.123" y2="20.935" transform="translate(65.209 48.488)" fill="none" stroke="#6438fa" stroke-linecap="round" stroke-linejoin="round" stroke-width="4"/>
    <line id="Line_9" data-name="Line 9" x2="7.047" y2="11.242" transform="translate(47.768 58.181)" fill="none" stroke="#6438fa" stroke-linecap="round" stroke-linejoin="round" stroke-width="4"/>
  </g>
</svg>
