<svg xmlns="http://www.w3.org/2000/svg" width="23" height="18.21" viewBox="0 0 23 18.21">
  <g id="cash-outline" transform="translate(-31.221 -79.5)">
    <rect id="Rectangle_85" data-name="Rectangle 85" width="22" height="12" rx="2" transform="translate(53.721 92.21) rotate(180)" fill="none" stroke="#000" stroke-linejoin="round" stroke-width="1"/>
    <line id="Line_2" data-name="Line 2" x2="18" transform="translate(33.721 95.21)" fill="none" stroke="#000" stroke-linecap="round" stroke-linejoin="round" stroke-width="1"/>
    <line id="Line_3" data-name="Line 3" x2="14" transform="translate(35.721 97.21)" fill="none" stroke="#000" stroke-linecap="round" stroke-linejoin="round" stroke-width="1"/>
    <circle id="Ellipse_8" data-name="Ellipse 8" cx="4" cy="4" r="4" transform="translate(38.721 82.21)" fill="none" stroke="#000" stroke-linecap="round" stroke-linejoin="round" stroke-width="1"/>
    <path id="Path_16" data-name="Path 16" d="M403.87,83.87A3.87,3.87,0,0,1,400,80" transform="translate(-350.218)" fill="none" stroke="#000" stroke-linecap="round" stroke-linejoin="round" stroke-width="1"/>
    <path id="Path_17" data-name="Path 17" d="M32,83.87A3.87,3.87,0,0,0,35.87,80" transform="translate(-0.021 0)" fill="none" stroke="#000" stroke-linecap="round" stroke-linejoin="round" stroke-width="1"/>
    <path id="Path_18" data-name="Path 18" d="M403.87,256a3.87,3.87,0,0,0-3.87,3.87" transform="translate(-350.218 -167.486)" fill="none" stroke="#000" stroke-linecap="round" stroke-linejoin="round" stroke-width="1"/>
    <path id="Path_19" data-name="Path 19" d="M32,256a3.87,3.87,0,0,1,3.87,3.87" transform="translate(-0.021 -167.486)" fill="none" stroke="#000" stroke-linecap="round" stroke-linejoin="round" stroke-width="1"/>
  </g>
</svg>
