<svg xmlns="http://www.w3.org/2000/svg" width="20.582" height="18.798" viewBox="0 0 20.582 18.798">
  <g id="home-outline" transform="translate(-31.293 -47.517)">
    <path id="Path_12" data-name="Path 12" d="M80,212v10.1a.685.685,0,0,0,.685.685h4.107v-5.819a1.027,1.027,0,0,1,1.027-1.027h3.423a1.027,1.027,0,0,1,1.027,1.027v5.819h4.107a.685.685,0,0,0,.685-.685V212" transform="translate(-45.946 -156.966)" fill="none" stroke="#000" stroke-linecap="round" stroke-linejoin="round" stroke-width="1"/>
    <path id="Path_13" data-name="Path 13" d="M51.168,56.916,42.05,48.188a.722.722,0,0,0-.932,0L32,56.916" transform="translate(0 0)" fill="none" stroke="#000" stroke-linecap="round" stroke-linejoin="round" stroke-width="1"/>
    <path id="Path_14" data-name="Path 14" d="M354.054,68.92V64H352v2.952" transform="translate(-306.309 -15.299)" fill="none" stroke="#000" stroke-linecap="round" stroke-linejoin="round" stroke-width="1"/>
  </g>
</svg>
