<svg id="iconfinder_video_call_2639945_1_" data-name="iconfinder_video_call_2639945 (1)" xmlns="http://www.w3.org/2000/svg" width="18.412" height="10.874" viewBox="0 0 18.412 10.874">
  <path id="Path_2" data-name="Path 2" d="M11.478,16.874H1.208A1.208,1.208,0,0,1,0,15.666V7.208A1.208,1.208,0,0,1,1.208,6h10.27a1.208,1.208,0,0,1,1.208,1.208v8.458A1.208,1.208,0,0,1,11.478,16.874Z" transform="translate(0 -6)" fill="#fff"/>
  <path id="Path_3" data-name="Path 3" d="M23,12.328h4.229V8.7l-1-.453L23,11.12Z" transform="translate(-9.105 -6.891)" fill="#fff"/>
  <ellipse id="Ellipse_5" data-name="Ellipse 5" cx="0.85" cy="0.425" rx="0.85" ry="0.425" transform="translate(16.712 1.321)" fill="#fff"/>
  <path id="Path_4" data-name="Path 4" d="M23,15h4.229v3.625l-1,.453L23,16.208Z" transform="translate(-9.105 -9.563)" fill="#fff"/>
  <circle id="Ellipse_6" data-name="Ellipse 6" cx="0.85" cy="0.85" r="0.85" transform="translate(16.712 8.121)" fill="#fff"/>
</svg>
